/* XPM */
static char *default_player_21672338597[] = {
/* columns rows colors chars-per-pixel */
"64 64 27 1 ",
"  c None",
". c #9C9500",
"X c #9F9801",
"o c #A39C01",
"O c #A7A001",
"+ c #ABA400",
"@ c #AFA900",
"# c #B3AC00",
"$ c #B8AF01",
"% c #B7B000",
"& c #BBB300",
"* c #BFB801",
"= c #C3BB00",
"- c #C8BF00",
"; c #CCC400",
": c #CFC800",
"> c #D4CC00",
", c #D8CF00",
"< c #DCD300",
"1 c #E0D700",
"2 c #E4DB00",
"3 c #E9DF00",
"4 c #EDE300",
"5 c #F0E600",
"6 c #F4EA00",
"7 c #F8EE01",
"8 c #FEF400",
/* pixels */
"                                                                ",
"                                                                ",
"                                                                ",
"                                                                ",
"                                                                ",
"                                                                ",
"                                                                ",
"                                                                ",
"                                                                ",
"                                                                ",
"                                                                ",
"                                                                ",
"                                                                ",
"                            888888888                           ",
"                         888888888888888                        ",
"                       8888888888888888888                      ",
"                      888888888888888888888                     ",
"                    677668787888888888888888                    ",
"                   666666667777787788888888888                  ",
"                   5655666666676677778878888888                 ",
"                  44444555556566666666777778878                 ",
"                 3334344  4554545565566666666667                ",
"                2332333    4434444445455656666668               ",
"                2222222    3333344444544445455656               ",
"               <<<22111    22233424244444444444455              ",
"               <<<<<<<11111112224<4<<44<4442444445              ",
"               ,,,<<<<<<<<111111<<4424<44<24224243              ",
"               >,,>,,<,,<<<<<<<<<<<<<<<<2<22<4<4224             ",
"              :>>:>>>,>,,,,,,,,<<<<<<<<<<<<22222232             ",
"              :::::>>::>>>>>>,,,>,<,<<<<<<<<<<<<<<1             ",
"              ;;::;;;:::::>>>>>>>>,>,,<,,<,<<<<<<<<             ",
"              ;--;;;;;;;;:;:::::>>:>>>>>,>>,,,,,<<<             ",
"              -------;;-;;;;;;;;:       >>>>,>,>,,,             ",
"              *====--==;;=;;-;;;;;             >>>>             ",
"              =***==*===*=-==;--;;=                             ",
"               &&&&=&*=*=**==*-==;=;                            ",
"               &&&&&&&&*&**==========                           ",
"               #%&%%&&&&&&&&&&&&&=&===                          ",
"                ###%%#%&%&&&&&$=*&&&***                         ",
"                ##########%#$$$$&&&$&&&*                        ",
"                 @@@@@@##########$$$%%&%&                       ",
"                 O@@O@+@+##@@#######$#$#$$                      ",
"                  OOO+++++@+@@++@#@#######$                     ",
"                   OoOOoOO+Oo@+@+@+++@@@#@##                    ",
"                    ooooOOOOOOOOO++++++@++#@+                   ",
"                     ooooooooOooOOOOOO+OO+++                    ",
"                      ooXXooooooooooOoOOO+o                     ",
"                        ....XXXXXoXoooooo                       ",
"                          ........XXXXo                         ",
"                              .....                             ",
"                                                                ",
"                                                                ",
"                                                                ",
"                                                                ",
"                                                                ",
"                                                                ",
"                                                                ",
"                                                                ",
"                                                                ",
"                                                                ",
"                                                                ",
"                                                                ",
"                                                                ",
"                                                                "
};
