/* XPM */
static char *default_player_31672338667[] = {
/* columns rows colors chars-per-pixel */
"64 64 28 1 ",
"  c None",
". c #9C9500",
"X c #9F9801",
"o c #A39D01",
"O c #A6A001",
"+ c #ABA400",
"@ c #AFA800",
"# c #B3AC00",
"$ c #B8AF00",
"% c #B7B000",
"& c #BBB400",
"* c #BFB801",
"= c #C3BC00",
"- c #C8BF00",
"; c #C7C000",
": c #CCC400",
"> c #CFC800",
", c #D3CB00",
"< c #D8CF00",
"1 c #DCD300",
"2 c #E0D700",
"3 c #E4DB00",
"4 c #E8DF00",
"5 c #ECE300",
"6 c #F0E600",
"7 c #F4EA00",
"8 c #F8EE01",
"9 c #FEF400",
/* pixels */
"                                                                ",
"                                                                ",
"                                                                ",
"                                                                ",
"                                                                ",
"                                                                ",
"                                                                ",
"                                                                ",
"                                                                ",
"                                                                ",
"                                                                ",
"                                                                ",
"                                                                ",
"                            999999999                           ",
"                         999999999999999                        ",
"                       9999999999999999999                      ",
"                      999999999999999999999                     ",
"                    788789889899999999999999                    ",
"                   777778888888998989999999999                  ",
"                   6766767676886888889889999999                 ",
"                  55555666666677777777788888889                 ",
"                 4445455  5566666767777778778888                ",
"                4334444    5545555555667677777779               ",
"                3333333    4444455555555556656657               ",
"               11313333    34433515355555555555566              ",
"               11111111133132233153533515553555555              ",
"               <<111111111132222151335155115155555              ",
"               ,,,<<<<<<111112<21113111111555115335             ",
"              ,,,,,,<,,<,<<<<<<<1111111111511313333             ",
"              :,:>,,>,,,,,,,<<<<<<<11<1111<11311131             ",
"              :::::>:>>>>>,,>,,,,,,,<<1<<<1<1111112             ",
"              ;;:::::::::>>>>>>,>,,>,<,,<,,<<1<<111             ",
"              ----;-;;;;:::;::>:>>,>>,>,>,,,,<,,<,<             ",
"              *==-=-----;;;-:;;;::  ::::>>>>>,,,,,<             ",
"              =*&*======-==-;;--;;;    ::::::>>>>>>             ",
"               &&*&**&========-=;;;;     ;:::::::>              ",
"               &&&&&&&&&&&&==*=======     :--::::-              ",
"               #%%%&&&&&&&&&&&&&***===      ====--              ",
"                ####%##&&%&&&&$=&&*&&**       ===               ",
"                ##@######&##$$$$&$$&&&&*        =               ",
"                 @@+@@@@#########$$$&$$%&                       ",
"                 O@++@@@+@@@@##@#######%%%                      ",
"                  O+o+++++@+@@@@@#@@@######                     ",
"                   OO+ooO+O++++++++@@@@@@@##                    ",
"                    ooooOoOO+OOO+OO++++@@+@@#                   ",
"                     oooooooooooOOOO+O+OO+O@                    ",
"                      ooXXoXooooooooOoOO+OO                     ",
"                        .X..XXX.Xoooooooo                       ",
"                          .X..X.X.XXXXo                         ",
"                              ....X                             ",
"                                                                ",
"                                                                ",
"                                                                ",
"                                                                ",
"                                                                ",
"                                                                ",
"                                                                ",
"                                                                ",
"                                                                ",
"                                                                ",
"                                                                ",
"                                                                ",
"                                                                ",
"                                                                "
};
