/* XPM */
static char *default_player_41672338783[] = {
/* columns rows colors chars-per-pixel */
"64 64 29 1 ",
"  c None",
". c #9C9500",
"X c #9F9801",
"o c #A39D01",
"O c #A6A001",
"+ c #ABA400",
"@ c #AFA900",
"# c #B3AC00",
"$ c #B8AF00",
"% c #B7B000",
"& c #BBB400",
"* c #BFB801",
"= c #C3BC00",
"- c #C8BF00",
"; c #C7C000",
": c #CCC400",
"> c #CFC800",
", c #D0C700",
"< c #D3CB00",
"1 c #D8CF00",
"2 c #DCD300",
"3 c #E0D700",
"4 c #E4DB00",
"5 c #E8DF00",
"6 c #ECE300",
"7 c #F0E600",
"8 c #F4EA00",
"9 c #F8EE01",
"0 c #FEF400",
/* pixels */
"                                                                ",
"                                                                ",
"                                                                ",
"                                                                ",
"                                                                ",
"                                                                ",
"                                                                ",
"                                                                ",
"                                                                ",
"                                                                ",
"                                                                ",
"                                                                ",
"                                                                ",
"                            000000000                           ",
"                         000000000000000                        ",
"                       0000000000000000000                      ",
"                      090000000000000000000                     ",
"                    999990990900000900000000                    ",
"                   888889999999000000000000000                  ",
"                   7868878787997889909000000000                 ",
"                  66666677778777797988989999990                 ",
"                 5556666  6677667777778798899999                ",
"                4554555    6666666777777777787880               ",
"                4444444    6466666666677777777768               ",
"               22424244    66445626666646666676668              ",
"               22222222262222644262626264662666666              ",
"               22222222222242242262462622664664666              ",
"               1,,111112222222222224262262262426446             ",
"              ,,<<11<<1<111112122222222222244224444             ",
"              ,,>,,,<,<<<<11<<11<112222222222422242             ",
"              ::::,,>>:,>,,,,<<1<<<1<21122112222223             ",
"              ;;;::::::::>,>>>>,<<><<<<<<<111211222             ",
"              =;----;::::::;::::>>>>><><<<<<<111<11             ",
"              ==========-;;-;:;;::::::>>>>>>><><<<<             ",
"              =&=&======-==-;;--;;;;;;:::::::>,>><>             ",
"               &&&&&==&======-===;;;;---;:;;::::::              ",
"               %&&&&&&==&&*=**==*===-==--=----;;::              ",
"               %%%%%%%%%&&&&*&&*&=*========----=--              ",
"                ##$$%#%%%%&#&&&=&&*&&*&*=&*======               ",
"                #######%%&##$$#$&$&$&&&&*&&*&***=               ",
"                 +++##@###########&#%&#&&&&&&&&*                ",
"                 +++++++@+@#+#@########%#%%%&&$&                ",
"                  +++++++++++@@@@############%%                 ",
"                   Oooo++O+++++++@+++#+##@####                  ",
"                    OoooOOOOOO++++O+++++++@@@                   ",
"                     oooooooooooooOo+O++++++                    ",
"                      XXXXXooooooooooOoOOOO                     ",
"                        ..X.X.X.ooooooooo                       ",
"                          ........XXXXX                         ",
"                              .....                             ",
"                                                                ",
"                                                                ",
"                                                                ",
"                                                                ",
"                                                                ",
"                                                                ",
"                                                                ",
"                                                                ",
"                                                                ",
"                                                                ",
"                                                                ",
"                                                                ",
"                                                                ",
"                                                                "
};
