/* XPM */
static char *_ef7cab1925048cbbcbd9271bf569ee9Dg0R0nj1nJwOrmJr[] = {
/* columns rows colors chars-per-pixel */
"64 64 27 1 ",
"  c None",
". c #9C9500",
"X c #9F9801",
"o c #A39C01",
"O c #A7A001",
"+ c #ABA400",
"@ c #AFA900",
"# c #B3AC00",
"$ c #B8AF01",
"% c #B7B000",
"& c #BBB300",
"* c #BFB801",
"= c #C3BB00",
"- c #C8BF00",
"; c #CCC400",
": c #CFC800",
"> c #D4CB00",
", c #D8CE00",
"< c #DCD300",
"1 c #E0D700",
"2 c #E4DB00",
"3 c #E9DF00",
"4 c #EDE300",
"5 c #F0E600",
"6 c #F4EA00",
"7 c #F8EE01",
"8 c #FEF400",
/* pixels */
"                                                                ",
"                                                                ",
"                                                                ",
"                                                                ",
"                                                                ",
"                                                                ",
"                                                                ",
"                                                                ",
"                                                                ",
"                                                                ",
"                                                                ",
"                                                                ",
"                                                                ",
"                            888888888                           ",
"                         888888888888888                        ",
"                       8888888888888888888                      ",
"                      888888888888888888888                     ",
"                    677678777888888888888888                    ",
"                   666667677777886888888888888                  ",
"                   5655675565775666868868888888                 ",
"                  44444455555555657666687777887                 ",
"                 3334444  4455546555566657575777                ",
"                2333333    4444444544655556577558               ",
"                2222222    2343344444544545555566               ",
"               <<<2<<22    32233334334334444444446              ",
"               <<<<<<<<<2<<22322222223334224444444              ",
"               ,,,<<<<<<<<<<1<11<22222222223232344              ",
"               >,,,,,,<,<<<<<<<<<<<2<2<<22222232224             ",
"              :>>>>,>>,><,,,,<,<<<<<<<<2<2<2<222222             ",
"              :::::>>>::>>>>,>,,,,><<<<<<<<<<                   ",
"              ;;;;;;:::::>>>:>>>>>>,,,                          ",
"              ;-;;;;;;;;;;;:::;>>                               ",
"              --=-;--;;;;;;;;;;;:                               ",
"              *==========--;;;;;;;                              ",
"              =*===&=====--===;--;;                             ",
"               *&&=&=====*===-==-==-                            ",
"               &%&&&&&=&&***=&=&====-                           ",
"               #%%%&%&%&&&&*=&&=*&==*=                          ",
"                ###$%%%%%%%&%&$=&&*&=**                         ",
"                ########%#%#$$$$*$%$%&&&                        ",
"                 +#+##@##########%%%%%%&&                       ",
"                 +++++++@#@@@#########%#%$                      ",
"                  OOO+++++@++@+@###########                     ",
"                   OOOOOOO+O++++++++@+@#####                    ",
"                    ooooOOOOOO+OOOO+++++++@#+                   ",
"                     ooooooooOooOOOO+O++O+++                    ",
"                      o.XXXoooooooooOooOO+o                     ",
"                        X...XXX.oooXooooo                       ",
"                          ........XX.oo                         ",
"                              .....                             ",
"                                                                ",
"                                                                ",
"                                                                ",
"                                                                ",
"                                                                ",
"                                                                ",
"                                                                ",
"                                                                ",
"                                                                ",
"                                                                ",
"                                                                ",
"                                                                ",
"                                                                ",
"                                                                "
};
