/* XPM */
static char *player_left_21672338945[] = {
/* columns rows colors chars-per-pixel */
"64 64 27 1 ",
"  c None",
". c #9C9500",
"X c #9E9800",
"o c #A39D01",
"O c #A6A001",
"+ c #ABA400",
"@ c #AFA800",
"# c #B3AC00",
"$ c #B8AF00",
"% c #B7B000",
"& c #BBB400",
"* c #BFB900",
"= c #C3BC00",
"- c #C8BF00",
"; c #CCC300",
": c #CFC800",
"> c #D4CC00",
", c #D8CF01",
"< c #DCD300",
"1 c #E0D701",
"2 c #E4DB00",
"3 c #E8DF00",
"4 c #ECE300",
"5 c #F0E700",
"6 c #F4EA00",
"7 c #F9EE00",
"8 c #FEF400",
/* pixels */
"                                                                ",
"                                                                ",
"                                                                ",
"                                                                ",
"                                                                ",
"                                                                ",
"                                                                ",
"                                                                ",
"                                                                ",
"                                                                ",
"                                                                ",
"                                                                ",
"                                                                ",
"                            88888888                            ",
"                         888888888888888                        ",
"                       888888888888888888                       ",
"                     8888888888888888888888                     ",
"                    888888888888887887686766                    ",
"                   88888888888787777666666666                   ",
"                  8888888768866776766666566564                  ",
"                 678786667666666665546465444444                 ",
"                 8666666666666555554444  4444424                ",
"                6665666665554544444444    332242                ",
"                6666445444444442334333    2222224               ",
"               54445444442424424332223   22211<<<               ",
"               4444442422442222222222<2<<1<<<<<<<<              ",
"              434422242222<24222<2<21<<<<<<<<<,,<,              ",
"              2222222224<22<<<<<<<<<<<<<<,,,<,,>>,              ",
"              22<222<<<<<2<<<<<<,,,,,,,,,>>>>>>>>>              ",
"              1<2<<<2<<<<<<<,<,,,,,,,>>>>>>:::>;:::             ",
"              <<<<<<<<,,,,,,>>>>>>>>>:>:::;;::;;;;;             ",
"              <<,,,,,,>>>>>>>>>>:>::;:;:;;:;;;;;;;;             ",
"              ,,,,>,>>>>,      ;:;;;;;;;;;=;=;;=-==             ",
"              >,:>             ;;;;;;-;==;=;=======             ",
"                              ;;---=============*=              ",
"                             ====-===*===*&=&&&&&&              ",
"                            ==========&=&&&&&&&&&&              ",
"                           ===&*&&&&&&&&&&&&&&#&%#              ",
"                          &=&&&&&&&&&&$$&$&######               ",
"                         &&&&&&&&&#&##$##########               ",
"                        &&#%&##%########@@@@#@@+                ",
"                       %$##&########@#@@@@@+++++                ",
"                      #########@#@+++++++@+o+OO                 ",
"                     ###@#+#+@+++++++++Ooo+OOo                  ",
"                    +#+@++++++++OO++oOoOo+ooo                   ",
"                    +++++++OOOOoOooooooooooo                    ",
"                      OO+oOooOoooooooo.oo.o                     ",
"                       oooooooXooo..XX...                       ",
"                          oXXXX........                         ",
"                              .....                             ",
"                                                                ",
"                                                                ",
"                                                                ",
"                                                                ",
"                                                                ",
"                                                                ",
"                                                                ",
"                                                                ",
"                                                                ",
"                                                                ",
"                                                                ",
"                                                                ",
"                                                                ",
"                                                                "
};
