/* XPM */
static char *player_left_31672338988[] = {
/* columns rows colors chars-per-pixel */
"64 64 28 1 ",
"  c None",
". c #9C9500",
"X c #9E9800",
"o c #A39D01",
"O c #A6A001",
"+ c #ABA400",
"@ c #AFA800",
"# c #B3AC00",
"$ c #B8AF00",
"% c #B7B000",
"& c #BBB400",
"* c #BFB900",
"= c #C4BC00",
"- c #C8BF00",
"; c #CCC400",
": c #CFC801",
"> c #D0C700",
", c #D4CB00",
"< c #D8CF01",
"1 c #DCD300",
"2 c #E0D700",
"3 c #E4DB00",
"4 c #E8DF00",
"5 c #ECE300",
"6 c #F0E700",
"7 c #F4EA00",
"8 c #F9EE00",
"9 c #FEF400",
/* pixels */
"                                                                ",
"                                                                ",
"                                                                ",
"                                                                ",
"                                                                ",
"                                                                ",
"                                                                ",
"                                                                ",
"                                                                ",
"                                                                ",
"                                                                ",
"                                                                ",
"                                                                ",
"                            99999999                            ",
"                         999999999999999                        ",
"                       999999999999999999                       ",
"                     9999999999999999999999                     ",
"                    999999999999989989797877                    ",
"                   99999999999898888787777777                   ",
"                  9999999879977787777777677675                  ",
"                 989897777877777776666666555555                 ",
"                 8777777777776666665555  5555555                ",
"                7776777776676555555555    445133                ",
"                7777556555555555545444    3335155               ",
"               65555555555355353333333   33331111               ",
"               55555355335333533333332221111111111              ",
"              54533453533333331331222112111111<111              ",
"              33333333133131131111111111<<<<1<<,,,              ",
"              333333111111111111<11<<1,<<<,,,,,,,,              ",
"              21311131111111<1<<<<,,,,,,,,,,>,:::::             ",
"              11111111<<1<<<,,,<,,,,,,,,,;;,;;;;;;;             ",
"              11<<<<<<,<<,,,,,,:,>>,;;>;;;;;;;;-;;;             ",
"              ,<<,<<,,,,:,::;: ;;;;;;;;;;;-;;=---==             ",
"              ,,:,:::::;::::   ;;;;;;==;--=====-===             ",
"              ::::::;;;;;;    ;;;=;===========*==*              ",
"              ;;;;;;;;;;     -=======*===*&=&*&&&&              ",
"               ;;-;---      ====&==&==&==&&&&&&&$$              ",
"               ;--=--      =***&==&=&&&%$&%&&$%$%%              ",
"               ====       =&&**&$%&%%%%%%%%$%####               ",
"                =        &&&&%&%$$%%%$$$##$###@@#               ",
"                        $$$$$$%%%#######@@@@@@@@                ",
"                       %$$$$#%######@@@@@@+@+@++                ",
"                      ###@###@#@@@@@@+@++++o+o+                 ",
"                     ###@@@@@++@+++++o++o++o+o                  ",
"                    @@@+++@@+++++oOOOOooo+ooo                   ",
"                    @++++++oOOoo+ooooooooooo                    ",
"                      o++oOooOooooooooXXoX.                     ",
"                       ooooooooXo.XXo.X.o                       ",
"                          oXXXXX..XX...                         ",
"                              .....                             ",
"                                                                ",
"                                                                ",
"                                                                ",
"                                                                ",
"                                                                ",
"                                                                ",
"                                                                ",
"                                                                ",
"                                                                ",
"                                                                ",
"                                                                ",
"                                                                ",
"                                                                ",
"                                                                "
};
