/* XPM */
static char *player_left_41672339026[] = {
/* columns rows colors chars-per-pixel */
"64 64 28 1 ",
"  c None",
". c #9B9500",
"X c #9E9800",
"o c #A39D01",
"O c #A6A001",
"+ c #ABA400",
"@ c #AFA800",
"# c #B3AC00",
"$ c #B8AF00",
"% c #B7B000",
"& c #BBB400",
"* c #BFB800",
"= c #C3BC00",
"- c #C8BF00",
"; c #CCC400",
": c #CFC801",
"> c #D0C700",
", c #D4CB00",
"< c #D8CF00",
"1 c #DCD300",
"2 c #E0D701",
"3 c #E4DB00",
"4 c #E8DF00",
"5 c #ECE300",
"6 c #F0E701",
"7 c #F4EA00",
"8 c #F9EE00",
"9 c #FEF400",
/* pixels */
"                                                                ",
"                                                                ",
"                                                                ",
"                                                                ",
"                                                                ",
"                                                                ",
"                                                                ",
"                                                                ",
"                                                                ",
"                                                                ",
"                                                                ",
"                                                                ",
"                                                                ",
"                            99999999                            ",
"                         999999999999999                        ",
"                       9999999999999999999                      ",
"                     9999999999999999999999                     ",
"                    999999999999998998797877                    ",
"                   99999999999888888777777777                   ",
"                  9999999878987887877777677675                  ",
"                 888897788787776766765765565555                 ",
"                 8887777767676656665555  5553555                ",
"                7777777766666655555555    443533                ",
"                7766566555555555444444    3333335               ",
"               55565555555515553443333   33331311               ",
"               55555533515351515333332221111111111              ",
"              545535551555155131221221211111111111              ",
"              3313313333111131111111111111,11,,,<<              ",
"              3333131311111111111<1<<<<<,<,,,,,>::              ",
"              21111111111111<1<<<<<<,,,,,>,>,>>:::>             ",
"              11111111<<1<<<<<<<>,,,>,>,>:::>:;:;;:             ",
"              1111<<<<<<,<:,::::>>>>>>>;;;;;;;;-;-;             ",
"              <<<,<,,,,:,>>:>:>;>;;;;;;;;;-;-----==             ",
"              ,,,,>,:::::>;;;;;;;;;;;;-=--=-=======             ",
"              :>:;:;;;;;;;;;;;--;--=--======**==**              ",
"              ;;;;;;;;;;;;---========*=********&&*              ",
"               ;;;;-;--==-=======*==*****&&*&&&&&%              ",
"               ;-=-======**==*&*&**&&&&&&&&%&%$$$$              ",
"               -=====&==&=&==**%%&&%%%&$%%$#$#$##               ",
"                =&=&=&&&&&&%%&%%%$%%%$#$$#######@               ",
"                &&&&&&&%&%&%$%%%%%######@@@@#@@+                ",
"                 &%%%%%%$#$#########@@@@@@@+++++                ",
"                  %##%%%#######@#@++@+++@++++OO                 ",
"                  #%@#@#@#+#+++++++++o++oo+oOo                  ",
"                   #@#++++++++++Ooo+oOooooooo                   ",
"                    +O+++++OO+ooOOoooooooooo                    ",
"                      OO+oOoooooooooooooo.o                     ",
"                       +oooooooooo.oo...o                       ",
"                          oXXXX........                         ",
"                              .....                             ",
"                                                                ",
"                                                                ",
"                                                                ",
"                                                                ",
"                                                                ",
"                                                                ",
"                                                                ",
"                                                                ",
"                                                                ",
"                                                                ",
"                                                                ",
"                                                                ",
"                                                                ",
"                                                                "
};
