/* XPM */
static char *food_21672343441[] = {
/* columns rows colors chars-per-pixel */
"64 64 23 1 ",
"  c None",
". c #101010",
"X c #111111",
"o c #272727",
"O c gray17",
"+ c gray20",
"@ c #393939",
"# c #444444",
"$ c #494949",
"% c gray37",
"& c #606060",
"* c DimGray",
"= c #6A6A6A",
"- c #777777",
"; c gray55",
": c gray62",
"> c #AAAAAA",
", c gray67",
"< c #B7B7B7",
"1 c gray72",
"2 c gray77",
"3 c gray82",
"4 c gray87",
/* pixels */
"                                                                ",
"                                                                ",
"                                                                ",
"                                                                ",
"                                                                ",
"                                                                ",
"                                                                ",
"                                                                ",
"                                                                ",
"                                                                ",
"                                                                ",
"                                                                ",
"                                                                ",
"                                                                ",
"                                                                ",
"                                                                ",
"                                                                ",
"                                                                ",
"                                                                ",
"                                                                ",
"                                                                ",
"                                                                ",
"                                                                ",
"                                                                ",
"                                                                ",
"                                                                ",
"                                                                ",
"                                                                ",
"                                                                ",
"                                                                ",
"                                                                ",
"                                                                ",
"                                                                ",
"                                                                ",
"                             OOOOOOO                            ",
"                            .-444444O                           ",
"                           .;2444444,&.                         ",
"                          O-244444444:*.                        ",
"                          #444444444441O                        ",
"                        .%44444444444444X                       ",
"                        .%44444444444444.                       ",
"                        .%44444444444444.                       ",
"                        .%44444444444444.                       ",
"                        .%44444444444444.                       ",
"                        .%44444444444444.                       ",
"                         @*444444444441%                        ",
"                          +,3444444442;.                        ",
"                           .,44444444%.                         ",
"                            .-444444O                           ",
"                             $%%%%&&                            ",
"                              ......                            ",
"                                                                ",
"                                                                ",
"                                                                ",
"                                                                ",
"                                                                ",
"                                                                ",
"                                                                ",
"                                                                ",
"                                                                ",
"                                                                ",
"                                                                ",
"                                                                ",
"                                                                "
};
