/* XPM */
static char *_d6503e18a104f6eb23506fdd7d3cfb3tSiXfkLiNJ8xB25Y[] = {
/* columns rows colors chars-per-pixel */
"64 64 22 1 ",
"  c None",
". c #25D922",
"X c #26D823",
"o c #25DA22",
"O c #27DA22",
"+ c #23DA2D",
"@ c #23DB2D",
"# c #24DB2D",
"$ c #25DB2D",
"% c #25D92E",
"& c #25D82F",
"* c #25D92F",
"= c #26D92E",
"- c #26D82F",
"; c #27D82F",
": c #26D92F",
"> c #27D92F",
", c #25DA2E",
"< c #25DA2F",
"1 c #26DA2F",
"2 c #27DA2F",
"3 c #25D930",
/* pixels */
"                                                                ",
"  @=>3===3;3=======3======3========33=>3==3===3===3=3==3=====O  ",
" o                                                            $ ",
" =                                                            3 ",
" 3                                                            = ",
" =                                                            > ",
" =                                                            3 ",
" 3                                                            > ",
" 3                                                            = ",
" =                                                            3 ",
" =                                                            = ",
" 3                                                            3 ",
" 3                                                            > ",
" =                                                            = ",
" =                                                            3 ",
" >                                                            > ",
" 3                                                            = ",
" >                                                            3 ",
" 3                                                            > ",
" =                                                            = ",
" =                                                            3 ",
" >                                                            > ",
" 3                                                            = ",
" =                                                            3 ",
" >                                                            = ",
" 3                                                            3 ",
" 3                                                            > ",
" =                                                            = ",
" >                                                            3 ",
" =                                                            = ",
" >                                                            = ",
" 3                                                            = ",
" 3                                                            3 ",
" =                                                            = ",
" >                                                            = ",
" =                                                            3 ",
" >                                                            > ",
" 3                                                            = ",
" 3                                                            3 ",
" =                                                            > ",
" >                                                            = ",
" =                                                            3 ",
" >                                                            > ",
" 3                                                            = ",
" 3                                                            3 ",
" =                                                            > ",
" >                                                            = ",
" =                                                            3 ",
" >                                                            > ",
" 3                                                            = ",
" 3                                                            3 ",
" =                                                            > ",
" >                                                            = ",
" =                                                            3 ",
" >                                                            > ",
" 3                                                            = ",
" 3                                                            3 ",
" =                                                            > ",
" =                                                            = ",
" 3                                                            3 ",
" =                                                            2 ",
" =                                                            o ",
"  o==3>3>==3>>=3=33==3=3>>=3=3>>=33>=2=3=323>==33==3=33==333=$  ",
"                                                                "
};
