/* XPM */
static char *_4cbda46f57e4961e4720799cfa1fe1bkxJ3bTvmc6KX8ihy[] = {
/* columns rows colors chars-per-pixel */
"64 64 61 1 ",
"  c None",
". c #324D5B",
"X c #3D5763",
"o c #3D5764",
"O c #D15146",
"+ c #D15047",
"@ c #D35146",
"# c #D25047",
"$ c #D25147",
"% c #D25246",
"& c #D25247",
"* c #D45147",
"= c #D55347",
"- c #D65248",
"; c #D65348",
": c #D85349",
"> c #D95449",
", c #D95549",
"< c #DA5449",
"1 c #DB5449",
"2 c #DA554A",
"3 c #DC544A",
"4 c #DD554A",
"5 c #DE554B",
"6 c #DE564A",
"7 c #DE564B",
"8 c #E0564B",
"9 c #E1564B",
"0 c #E1574B",
"q c #E2574B",
"w c #E1564C",
"e c #E3564C",
"r c #E2574C",
"t c #E2574D",
"y c #E26056",
"u c #E2695F",
"i c #E27268",
"p c #E27269",
"a c #E27B72",
"s c #E27B73",
"d c #E2847C",
"f c #E3847D",
"g c #6A7D87",
"h c #809098",
"j c #ACB6BB",
"k c #ACB7BB",
"l c #E28D86",
"z c #E29690",
"x c #E39690",
"c c #E39F9A",
"v c #E3B1AD",
"b c #B7C0C4",
"n c #C2CACC",
"m c #CDD3D5",
"M c #D9DDDE",
"N c #E3C3C0",
"B c #E3D5D3",
"V c #E4D5D3",
"C c #E3D5D4",
"Z c #E4DEDD",
"A c #E4E7E7",
/* pixels */
"                                                                ",
"                                                                ",
"                                                                ",
"                                                                ",
"                                                                ",
"                                                                ",
"                                                                ",
"                                                                ",
"                                                                ",
"                                                                ",
"                                                                ",
"                                                                ",
"                                                                ",
"                                                                ",
"                                                                ",
"                            ;,6rrqrr                            ",
"                         #=3rrrrrrrrrr                          ",
"                       #;3rrrrrrrrrrrrrr                        ",
"                     &#,qrrrrrrrrrrrrrrrrr                      ",
"                    ##,rrrrrrrrrrrrrrrrrrrr                     ",
"                   #&,rrrrrrrrrrrrrrrrrrrrrr                    ",
"                   #,rrrrrrrrrrrrrrrrrrrrrrrr                   ",
"                  #*0rrrrrrrrrrrrrrrrrrrrrrrr                   ",
"                 ##3rrrrrrrrrrrrrrrrrrrrrrrrrr                  ",
"                 &*qrrrrrrrrrrrrrrrrrrrrrrrrrr                  ",
"                &#3rrrrrrrrrrrrrrrrrrrrrrrrrrrr                 ",
"                ##qrrrrrrrrrrrrrrrrrrrrrrrrrrrr                 ",
"                #;rrrrrrrrrrrrrrrrrrrrrrrrrrrrr                 ",
"               #&,rrrrrrrrrrrrrrrrrrrrrrrrrrrrrr                ",
"               ##,rrrrravNvurrrrrrrpvNvurrrrrrrr                ",
"               ##6rrrrfAAAAAlrrrrrfAAAAAlrrrrrrr                ",
"               ##6rrryVAbhmAZyrrrrCAnhmAZyrrrrrr                ",
"               ##0rr0sAMX.oMAprrraAMo.oMAfrrrrrt                ",
"               ##3rrrfAM...MAsrrrfAMo..MAfrrrrrt                ",
"               ##6rrryZAkgkACyrrryZAkgkAAurrrrrr                ",
"               ##6rrrrxAAAAAxrrrrrxAAAAAcrrrrrrr                ",
"               #&6qrrrrlNVNsrrrrrrrlNCNsrrrrrrrt                ",
"               ##6rrrrrrrrrrrrrrrrrrrrrrrrrrrrrt                ",
"               #&6rrrrrrrrrrrrrrrrrrrrrrrrrrrrrt                ",
"               ##6rrrrrrrrrrrrrrrrrrrrrrrrrrrrrt                ",
"               #&6rrrrrrrrrrrrrrrrrrrrrrrrrrrrrt                ",
"               ##6rrrrrrrrrrrrrrrrrrrrrrrrrrrrrt                ",
"               #&6rrrrrrrrrrrrrrrrrrrrrrrrrrrrrt                ",
"               ##6rrrrrrrrrrrrrrrrrrrrrrrrrrrrrr                ",
"               ##6rrrrrrrrrrrrrrrrrrrrrrrrrrrrrr                ",
"               #&6rrrrrrrrrrrrrrrrrrrrrrrrrrrrrr                ",
"               ##6rrrrrrrrrrrrrrrrrrrrrrrrrrrrrr                ",
"               #&6q   rrrrrrrr   0rrrrrrr   0rrr                ",
"               #+,      rrrr       rrrr       rr                ",
"               #+                                               ",
"                                                                ",
"                                                                ",
"                                                                ",
"                                                                ",
"                                                                ",
"                                                                ",
"                                                                ",
"                                                                ",
"                                                                ",
"                                                                ",
"                                                                ",
"                                                                ",
"                                                                ",
"                                                                "
};
