/* XPM */
static char *dfb7618750c14c2c8fe14003656384dbaWeFE1zDMQK1Hjzg[] = {
/* columns rows colors chars-per-pixel */
"64 64 26 1 ",
"  c None",
". c #9C9600",
"X c #9F9800",
"o c #A39C01",
"O c #A6A001",
"+ c #ABA401",
"@ c #AFA800",
"# c #B3AC00",
"$ c #B7B000",
"% c #BBB400",
"& c #BFB900",
"* c #C3BB00",
"= c #C8BF01",
"- c #CBC300",
"; c #CFC800",
": c #D4CB00",
"> c #D8CF00",
", c #DCD300",
"< c #E0D700",
"1 c #E4DB00",
"2 c #E8DF01",
"3 c #ECE300",
"4 c #F0E600",
"5 c #F4EA00",
"6 c #F8EE01",
"7 c #FEF400",
/* pixels */
"                                                                ",
"                                                                ",
"                                                                ",
"                                                                ",
"                                                                ",
"                                                                ",
"                                                                ",
"                                                                ",
"                                                                ",
"                                                                ",
"                                                                ",
"                                                                ",
"                                                                ",
"                            7777777                             ",
"                         77777777777777                         ",
"                       777777777777777777                       ",
"                     777777777777777777777                      ",
"                    77777777777777777777777                     ",
"                   67676766676777776777777777                   ",
"                  6555655666565666666666676667                  ",
"                 55556555555555555555655556555                  ",
"                3433333344434454444444454545445                 ",
"                33333333344434443344433343344444                ",
"               3233133332  222323333333333333333                ",
"               1211222112  2122213333331333313334               ",
"              111111<11111111<113,,3,111,3,311,33               ",
"              ,,<<,1<<<<<<<<<<<<,11111,33,,3,,13,               ",
"              ,,,,,,<,,<<,,<<,<<,,,,,,,,1,,1,3                  ",
"              >,,>,>>,>,,>,><>,<,,,,,,,,,,                      ",
"             >:>>>:>:>>>>>>:>>>:>>>,,,>                         ",
"             :::::::::::::::::::::>                             ",
"             ;;;;;;;;;;;;;::::::                                ",
"             --;---;-;;-;-;;-;;-;                               ",
"             ------=-=------------                              ",
"              -*=========*======---                             ",
"              *******=**=*=*==******                            ",
"              &*******%***%**********                           ",
"              %%%%%%*%*%%*%*%*%*%*%**&&                         ",
"               %$%$%%%%%%%%%%%%*%%%%%%%%                        ",
"               $$#%$$$%$$$$#$$$$%%%$%$%%$                       ",
"                ############$$#$###%###$$$                      ",
"                ############################                    ",
"                 +#+@@@@#++#@@@##+@@@@#######                   ",
"                  +++++++++++++++++@+@@++@@++@                  ",
"                   +o+++O++O++O++++++O+++++++                   ",
"                    ooooOooooOOOOoOoOOoooo++                    ",
"                     ooooooooooooooooooooo                      ",
"                       .XX.oXoXXoo.oooooo                       ",
"                         .........X.o.                          ",
"                             ......                             ",
"                                                                ",
"                                                                ",
"                                                                ",
"                                                                ",
"                                                                ",
"                                                                ",
"                                                                ",
"                                                                ",
"                                                                ",
"                                                                ",
"                                                                ",
"                                                                ",
"                                                                ",
"                                                                "
};
