/* XPM */
static char *_c14604eb4d84359b72c9d5019a2d7177vpVHQDcJtyW2J7n[] = {
/* columns rows colors chars-per-pixel */
"64 64 143 2 ",
"   c #557E1E",
".  c #587F1F",
"X  c #527D24",
"o  c #4F8315",
"O  c #4F8815",
"+  c #4E841A",
"@  c #528415",
"#  c #548B15",
"$  c #588D16",
"%  c #54851C",
"&  c #59861C",
"*  c #558B1C",
"=  c #5A8C1D",
"-  c #569216",
";  c #599316",
":  c #5D9B16",
">  c #56921B",
",  c #5C941C",
"<  c #579918",
"1  c #5D9A1C",
"2  c #618C1D",
"3  c #629B17",
"4  c #61951E",
"5  c #639C1D",
"6  c #699D1E",
"7  c #5EA11C",
"8  c #64A016",
"9  c #64A21E",
"0  c #6AA41E",
"q  c #67A81B",
"w  c #68A81B",
"e  c #4F8120",
"r  c #548423",
"t  c #5B8523",
"y  c #558B23",
"u  c #5B8C23",
"i  c #54842C",
"p  c #5C862A",
"a  c #568A29",
"s  c #5C8C2B",
"d  c #569123",
"f  c #5D9323",
"g  c #5E9A23",
"h  c #5D932B",
"j  c #5F9A29",
"k  c #558732",
"l  c #5D8D31",
"z  c #5D8B38",
"x  c #5D9231",
"c  c #5F9931",
"v  c #628722",
"b  c #628D24",
"n  c #6D8F26",
"m  c #61842A",
"M  c #628D2B",
"N  c #698F28",
"B  c #639424",
"V  c #6A9524",
"C  c #649B24",
"Z  c #699C25",
"A  c #63942B",
"S  c #6A952C",
"D  c #649B2B",
"F  c #6A9C2B",
"G  c #709D25",
"H  c #70942F",
"J  c #719D2D",
"K  c #638D32",
"L  c #649432",
"P  c #6A9432",
"I  c #659A32",
"U  c #6B9C33",
"Y  c #63943A",
"T  c #6E973A",
"R  c #639938",
"E  c #6D9C3B",
"W  c #709434",
"Q  c #719D32",
"!  c #719739",
"~  c #72993B",
"^  c #5EA021",
"/  c #65A223",
"(  c #6AA324",
")  c #65AA21",
"_  c #6AA825",
"`  c #6CA924",
"'  c #6EAD25",
"]  c #65A22B",
"[  c #67A428",
"{  c #66A429",
"}  c #63A12F",
"|  c #66A52F",
" . c #6AA229",
".. c #6CA128",
"X. c #6CA129",
"o. c #68A52B",
"O. c #6CA62B",
"+. c #6BA02F",
"@. c #6CA02C",
"#. c #69A52C",
"$. c #6CA52E",
"%. c #6AA929",
"&. c #6EA828",
"*. c #6DA92B",
"=. c #6CAC2B",
"-. c #71A327",
";. c #71A626",
":. c #71AC26",
">. c #74AC27",
",. c #71A42B",
"<. c #70A32D",
"1. c #70A42C",
"2. c #73A52D",
"3. c #72A62E",
"4. c #72AB2B",
"5. c #74AB2B",
"6. c #72AB2E",
"7. c #75AA2D",
"8. c #74B227",
"9. c #66A031",
"0. c #67A430",
"q. c #6AA031",
"w. c #68A233",
"e. c #6FA330",
"r. c #6DA333",
"t. c #6AA134",
"y. c #6CA930",
"u. c #6DA23B",
"i. c #71A731",
"p. c #72A433",
"a. c #74A432",
"s. c #73A536",
"d. c #73AA33",
"f. c #75A937",
"g. c #76A538",
"h. c #71A33C",
"j. c #7CA53B",
"k. c #70A83B",
"l. c #77A939",
"z. c #75AA38",
"x. c #79A939",
"c. c #6DA440",
"v. c #7EAE42",
/* pixels */
"5 0 9 ) 1 7 % f B / , C / C 1 X.r.a.Z g.$./ Z Z ` Z $.X.5 / < 5 5 0 9 q < C # f B / , D / C 4 X.O.i.Z g.@.C ( F _ ( $.F 9 ( - C ",
"o.[ 0 _ = 5 C [ h A =.d @.5 ( & i.7.( D @.<.:.Z 6.X.O.` F ( ..6.[ ] [ q > C C [ B A :.d F 5 / & s.4...U $.O._ Z 3.X.*._ ..6 _ 6.",
"q =.1 _ : C / ) , *.: C Z B ( u 3.,.6 %./ F o.F _ o.6.: ( ( i.O.q &.1 [ 1 C ) / , | , C D B ( u X.,.Z ` ( Z O.F / &.6.g ( X.3.@.",
", k.j g ; ; g 1 1 , t f C b V Z 7.F C ] l.S F j.U F X.r.C F C _ < k.] g , ; 5 ; 5 4 y , Z B S Z 5.F Z C g.S F x.U F X.9.C X.C _ ",
"1 B / f = I 0.* & y B f C Z C Z ( F D O.C F ( r.U t.0.g A g D C , g C f > c 9.% # & A f V C Z ..&.F D e.C D D $.r.$.0.D h B D / ",
"/ i.f %.> ^ d 1 s & B Z A b $.i.2 C F F r.= L d.O.<.j D ] P Z s 9 i.B _ , / g < t & B Z C s @.,.B 5 X.Z i.u U d.O.o.D D 9.S C s ",
"1 C g > [ 1 * > # f B C Z S b F p.4 C $.D h a u.F A Z g D Z A C 9 , , - y.g * > * B 4 F D S s F F C Z F D h a t.F A D , D Z V C ",
"g D j C * O = > # > C f * f s B A D Z F j t.D D C Z D = * d s , , D B d g U C g > < C B * y s V A D C F j e.] I D C D = * y h , ",
", C & r D X f = % 1 y D 5 B f A D j A t.f , D Z B r.F & * * @ / - f , - f d D F B = > F 4 B f h I D A F 9.V E Z B i.S = = # % [ ",
"= = h u u + , * y u s f , f D x u.c h Y b F 4 A D V y @ # * s 6 , # * & Z f C D f @ # $ 4 2 / x u.A h R c t h P S B y @ > % s , ",
"y & t s s a I @ r I A h * s c f D u = r f 4 F B S t = u $ = B 5 , f * > $ , B u y = * # * , , u C y s p E R R A b b y u $ = u 1 ",
"> < r a A a D 1 f u s y $ d h f h C % > = D C = u A A S u 5 > , f 2 S V , - u V p u & 4 s ; - , d A t K I Y s F b b M M u = y * ",
"# = y h K A A g C > D 5 , f u 5 u u = # , , D B f A s $.A y U Z &.D 4 & = 4 b s b F S % t f , > u u A K T Y M Y M M S S B p & u ",
"y r + h = M s s # y D < > Z Q $., C * & y x , * C , I , f C s.f.-.S 4 Z p B U U A A t s t a % y p D R s ! s s M K S 2 s v M p p ",
"y f o y y s B 5 C X.D g B , U a.( D = d C y h # h U p I ] o.U X.;.Z V F Z 6.4 s l.A D & M t u % l A U L E t s A r y h S t t S S ",
"t d % % I f # y B ( 1 f X.d.U F S = * p p x a f h h f ] * ] q f F 0 [ > A [ 0 Z F f b b b A a = K T K c.I I S U # , r M b b 2 M ",
"> y f d , + s ` h D $.C > , 7 > h s t l s p R % r p , B Z g 1 5 9 9 ) C 5 * 3 B I C & Z 4 A A h u Y M s M b P A % # * B b M u = ",
"g d * # D B , 9 5 , / f 5 6.g u y p s a l h s s a r & y : t.y = y B = , / * F ` d.4 B S 0 B M s a r.A Y P M M M & = b s y m P y ",
"r C i = 5 C y 4 = 5 # & / A u h h x h s L p A M X s S B C 4 C 5 h g f > y F Z X.<.D y D $.( / j C f 5 s P K P b B s A M p S P u ",
"5 f Z I C $ y f f y B s C f 1 s u h h h D b I m . r t t A A 4 C 5 5 X.D / C F $.3.Z V : C _ 8 C , C , 5 F D B u U b t V s t b b ",
"u x = D a * s t + h f Z B f y % y h K L A t B p 4 V X.f A A V 6 B d u B y 3 y U <.Z u 1 , 5 : = h f D 0 r.C 4 V B V <.X.4 b n 2 ",
"b s D g r h h u & , % f 4 = * t u p Y A B p % S B f D ( > / 5 5 V M b % S B C h B = & > r X.C _ g d B f 5 ( C Z V C , V b n V v ",
"= X.g * R y f g C A F C C & = t 2 B U R E p S B ` , I _ g D Z ( f D M S D _ B C C A A C > 0 / 9 , , C g , B V Z C C Z Z b P N v ",
"t Z %.* D D B D C & D D A B & B = F A U E M F 6 5 , 9 * B B F Z B U V Z 0 9 f C D $ Z Z ( ( 5 3 D 5 3 1 Z Z F u B f B B P b b b ",
"g q / = = d U Z U I B M s I t Q U b Q U s 4 > h , 1 1 * , C f p Z Z f , g - C 4 U P B B C B ; S X.] f C 5 F D A D A 2 4 Q b Q ! ",
"D U &.3 s.U s ! 3.b J F A Z A P S & M U B 1 D 0.g = y A B D D B V Z f t.j = & U 3.b J F C 9.D J B = A s C Z A Z 5 4 = V M W V S ",
"S I / C $ U U s.,.5 F B Z F S U A k.h.s.2 C g g ; y & B Z B L V X.5 C , > 1 C r.-.5 F B F C F U S u.U B 4 B , C V f B u ! S t b ",
"<.:.8.Z V r.d.h -.-.F V A F 3.B E I U Z * 4 # = < , = B D 4 S u X.:.9 ; * g U A ,.&.Z A A U ,.V U U A D M D A B f t B C = b b u ",
"S Z _ 1 g d C ) Z g 0 7 = I 0 3 F F = A y & B B = # , 5 Z * B y B D &.1 - > - / D 5 [ 0 > U 0 3 U X.M s I t r r r L A u Z u S t ",
"$.f / - , C C ^ 5 1 [ 9 f ] 4 C 4 F A S F M S P B f , a S > 4 X.O.g C - 1 C g ^ 5 1 [ 3 , 1 = 5 C I k.U @.V A y p A u Z V M b Q ",
"@.> 9 1 5 / I * - y C * 5 A r.( 2 F F A C S U p t P U f B B B F ] , 9 1 9 / D y > u C > , , = 6.&.y.e.A X._ 0 Z f A B Z W P S F ",
"f g ( 9 , C C f , &.I f B U s.&.C S Z B r.F P D u.c.l.Z C %., / , f / / , C C B , y.g h B D U C X.( y.Z ` i.X.` C , &.F O.o.5 / ",
"9 / 9 q 1 1 & s B / , ] O.t.D F _ Z A A $.:.B U F A F ( 9 / - C / / 9 ) , 8 % f 4 / , Z ( 1 g F 3.i.Z s.X./ F F _ 6 X...9 ( - g ",
"| / ) %.> g C ( B A ' d j < ) Z C ) 5 > F 3 C S | Q F &.F 9 _ 4.] o./ ) > C C o.A A =.f ] 5 ( $ i.7.( F O.O._ ( d.F o.` Z 0 &.,.",
"w &.1 ) : C ) ) , &., C X.] g - , / 5 1 , , / $.u.6.3.: ( ;.6.F w %.1 ) , C ) 5 , &.: 9 _ _ 5.B 3.X.6 *.( Z O.D ` X.:.g ( X.3.<.",
"f k./ f , ; 1 , / > t , C A = y h D # C = f @.( $.F ( 9.C F C _ , 0.] g 3 , # C B , 2 C 0 Z 6 F >.r.C C f.S F x.U F X.t.C [ C ( ",
", , ( f > c 9.* % = , f C C C 1 %.B d C I Z C X.F @.] j A B D C 4 F / V Z A b f 4 Z A F ..3 C r.3 F D O.C D F X.t.U 0.] A f D / ",
"/ s.B _ , ^ d 1 s & B Z B p ( C / 3 C ( _ C D i.3.X.D g > , F -.;.A B C f A u Z Z F S s F Z ( 4.4 Z F Z y.& U k.0.@.C D ] S D b ",
": C g - %.1 * , * B B Z F S u D 3.5 C F I h h r.X.A g C ] ,.D J 0 F S J A f B f Z , f f B C o./ $.C Z F D h h r.X.S D , D Z V C ",
"C D j j O * * > # > g B $ 4 s A A D Z F C t.j D Z f / D = ] ) f X.( _ > D A C C y C C C 4 5 ( Z V D B F C r.D I D f j = = d M f ",
"g C * r I X , = o , d F 4 f f A D D A F I B E Z B <.5 C 1 [ : 5 3 C [ 1 C , f D I A C g C Z t.A D A C F F f U D 4 d.S & = O * / ",
"# = A y s + , # y f s f = g D x u.I h c D p A A Z A & u 5 F y > a C > < C , : C d f 3 ( F Z F D I I B g f C A L A V = o - # u f ",
"y & p u s y I , = B = , - f D A B f , C [ 1 A I 3 4 , , B 5 B C ] C f , 3 Z B B B % p 4 C Z Z g g f B 0 C I V B B b t y * - u d ",
"; > y a A s A u u F B D , 4 g ` g C # , 0 C 1 1 % B X.F 4 & u , 5 , B = F ( Z y y , f 4 B f Z C f A @ u C O.B i.B B M S = u y = ",
"# f y h K A r p u B Z f M B C F , f y = j > 7 = = 4 B B B = , A C 5 D D Z X.F F A A C s B , B f f B * u , f t Z 2.6.B V S u t y ",
"y r + f y M y - = C f f u S D I g ` , } D = * B F f B , C Z 5 3 X./ ( , D 6.7.D h s e l Y x r r s L C C Z A C U Z f F B b M t & ",
"y y o y y a % % 1 , F B B f = C 1 / / g , , y 2 f X.f S C C X.5 C F C D a t.X.B s c s a s a y p A A B B Z t A O.F Z Z X.F t S S ",
"& d % * I a X r y h , = 1 , / ] 1 - 1 , * g , y V B B s S o.C I B Z D 0.D D D D h y l r a h a d K f y V C u Z A D V # Z B M b M ",
", y g y , % l r , = y @ D h D $.a d *   = O # , g C f f f p g C A D D A E C B e.D = = s h h R h u f f 1 f f u s V I U F b b b = ",
"d h * - A B r s y d x h y s B d y u D r > % y = u h = 5 C A D L h c B s f V S Z & + # h a p p s r D y y Z , 5 , f d Z V u s I t ",
"* f r , 5 C & r f r L l y R h x h x f % D f p c f f & y t.x U f f C / 1 4 C 3 B f f f h # R x x h x B u = u A m r K L v t S L y ",
"C 4 D L j = b f s f x h h e h a u s A f B = y f D f = y d B f y u 4 ( g C , t , F / h x a r h r a p h h B y f v r p p = Y   S v ",
"b h , I i & s r + B y s A % y + u M t A u = i a R u r i d f s s S b D B a & y 5 4 C t s L = y + = Y K R b t B p S P S v v v V v ",
"b s D g + f f u * = % f f y r u u y K y s p a l a k Y a r t L M Y p P B + j f f * = & f f = + p u y P A B i % P m H b M & n n v ",
"b F g * c y g g D A ( B C & p & = f s s r r l a x s y y a s L S I I D # R y f A Z D F C C * & & = B U L ~ v P B U U b S N S S 2 ",
"u Z *.* I D h D D $ D C A f & B & ( B i i i k z s k h y a s K Y E E D * D D h D C y D j V B & B = J A U U M U v S S S b P b b N ",
"C w ( & f d U V U P B M s I y U s s C r y * , u r h j l I y p ~ p D ( $ y f I Z ~ S B B M I t U U S U D s L b 4 Z V B B F b ~ U ",
"D I ` 3 s.U t U p.b J X.S C A M Y * r y * A h L s f p M s y D F A D ;., s.U s U O.= p.F A Z B T M t A U S S U B y p M S b S V S ",
"S I / C & U r.s.:.6 S B Z D M D y @ y r a % S M U A ~ P P S b t S U 9 C & F F a.-.Z S B B U D U S u.~ v.B S F m % t m 2 m M u b ",
"J >.8.C B r.r.A -.&.V S A t.F , C , y & b b u s P P W F B 2 M 2 i.:.8.j V 0.s.S 3.` Z D S F 6.B U I I I B S A p M ! P M & 2 N = ",
"D Z o.: 3 d g ) D 5 C ) * @.8 [ C , v & & B Z S S t ~ 2.s.u S t D D _ 1 5 y / 9 D C 9 0 * U q 3 U X.A U r.b N n S S = v b = S m ",
",.B C > , j D ^ 1 : ) ^ , C = 5 p A & V D = C G B $.P G V M b Q F f / - f C ^ C 1 1 / 9 1 5 = 5 C U k.U r.Z S Z B s.b V 2 M b J ",
"] , 9 1 9 ] A y = u j = , ; = r.Z ( F S B ( 3 &.7.5.F W W P S F X.> / 1 9 C R y > u j > , , = r.O.i.e.M X.` 0 0 2.F B W W P S F ",
"> f ) 0 , D 5 g , y.D d C I U D ( ( $.( / 6...` 6 Z Q a.*.y.1 [ , , [ 9 , Z 5 g , y.D f f D D Z _ X.O./ ` 2.-.:.Z 6 F a.*.y.1 / "
};
