/* XPM */
static char *_e07fec750f94e44f7c50587d644bad066V6QeXHsGghdGxn[] = {
/* columns rows colors chars-per-pixel */
"64 64 90 1 ",
"  c None",
". c #0B0D0C",
"X c #131514",
"o c #171817",
"O c #181917",
"+ c #1B1C1B",
"@ c #1F201F",
"# c #232425",
"$ c #282826",
"% c #252628",
"& c #262829",
"* c #2B2C2C",
"= c #302F2E",
"- c #2F302F",
"; c #31312F",
": c #2D2F30",
"> c #2F3031",
", c #333434",
"< c #373837",
"1 c #393937",
"2 c #363738",
"3 c #373839",
"4 c #3C3C3B",
"5 c #3F403F",
"6 c #41413F",
"7 c #3D3F40",
"8 c #3F4040",
"9 c #444443",
"0 c #484746",
"q c #474846",
"w c #484946",
"e c #424549",
"r c #474949",
"t c #4C4C4B",
"y c #4F504E",
"u c #51514E",
"i c #4F5051",
"p c #4E545D",
"a c #545452",
"s c #585754",
"d c #575856",
"f c #595956",
"g c #5C5D5B",
"h c #5F605D",
"j c #61615E",
"k c #5F6160",
"l c #5A6578",
"z c #646462",
"x c #686765",
"c c #676866",
"v c #696966",
"b c #676968",
"n c #6C6D6A",
"m c #6F706D",
"M c #71716E",
"N c #757572",
"B c #787775",
"V c #777877",
"C c #7A7976",
"Z c #7C7C79",
"A c #82827E",
"S c #6D7D9F",
"D c #7789AF",
"F c #7287B4",
"G c #848481",
"H c #8A8985",
"J c #848D8D",
"K c #8D8E8A",
"L c #908F8B",
"P c #87908F",
"I c #92918D",
"U c #879090",
"Y c #8B9292",
"T c #939593",
"R c #909897",
"E c #9A9A96",
"W c #959B9A",
"Q c #9D9E9A",
"! c #A09F9B",
"~ c #A3A29E",
"^ c #A6A6A1",
"/ c #A9A7A3",
"( c #AAAAA5",
") c #ADACA8",
"_ c #B0AFAB",
"` c #B2B1AC",
"' c #8FAEF7",
"] c #9AB6F3",
"[ c #D3D4D4",
"{ c #FFFFFF",
/* pixels */
"                                                                ",
"                                                                ",
"                                                                ",
"                                                                ",
"                                                                ",
"                                                                ",
"                                                                ",
"                                                                ",
"                                                                ",
"                                                                ",
"          zzd9422>::                                            ",
"    !~~^(T6xft72,32>,,,,::,>:,::,2:::*:**&&%%#%#&&>>,4,dxzzh    ",
"    !T~^^/L9bfr433,2>>,,>::::::::,*&*&&&&%######%&:,5>acczkkj   ",
"    EQ~~^//Z9zte7723722,2,,:::::*:::**&&&&%%##%##*,4*tbcczczj   ",
"    (^/)(/!EV9xiiire77iapiigkzaggai7ir77re4**&&:*,7*acnbmnczz   ",
"    ))/))Q!ILa2kkggkgignbzzbzzbnkkddkkikgdr4723347>4ccccmbnnx   ",
"    )(~`_~WTM#.$wZVZZVVVNNmmmbbbbzzzkzkzkggggdgy&%.%hcbnNmbmb   ",
"    ``~~(~IL5@5.r{{{{{{{{{{{{{{{{{{{{{{{{{{{{{{[..,O8xbnmnnmm   ",
"   0E(EQ/~EbOyf*X.XXXXXoOOOOO++@+########>,,,,,*X*01Oanmmnmmj   ",
"  99AHHGKKZ#-yu$5                       ,qtrrrrtt*99#&xbbkkcd9  ",
"  wjIAHKLHc&h91ct                       ,dNxchhhg9,49&dzhkgfd8  ",
"  wnHAHIIAz*Wy1C9                       1gAVxghhga,4Y*dhbckhk1  ",
"  wvAACCAAh-T5<jq                       4hmnzzdggt*1Y*dzhgghf8  ",
"  tvABBACNf,R9<jt                       5gkNcdggfy=4Y*afggfff1  ",
"  tvZNCCCjj;Wq<z9                       6zzzdgzghu,4Y&aahgddd8  ",
"  9MBMNCnMf;Qa<ct                       5jMggxccga19R&addgdaa4  ",
"  6nCNBNNCu-Qa<M4                       4fnczczghg,9T*agggddd4  ",
"  0jCNCMmNf*Rt,n9                       3axnchfgxg,7T,94585yd1  ",
"  w6nNNMvCh*R6<mt                        9NczggNnf,1T>913<4ar3  ",
"  t4jnvvjnh*R6<NM9                       ,gnnnnxNf,4Y*9,<33t93  ",
"  w5xBHAAvg-R9<CNa,                       3hzzzgzf,1Y*421,4aq3  ",
"  94NMBCBjs*Yt;MMnt                       -9ggngga,7K&53441dy,  ",
"  6wNMnCmja&Yw;MMmm5                       ,ugcjjf,4A$61<55uy<  ",
"  66vMCnNma$J6;vBMMg1                       4znnnz*2D%51,<<tt<  ",
"  s1NMjjzMu*P9;vnmMN0                       ,0mmxf;1J*43DDlda3  ",
"  61NCsjsxt&P5;cxnmNg4                       ,fMzf*1U*48]'Dua<  ",
"  u1MAZCMMu$K1;jxvnmvu1                       1jxg;,J$4,pprfa3  ",
"  6;nCCNvvt$Pu4zvnMmmj0                       =6zj4tP$5<->3har  ",
"  0,nABMvvt&Pg6xnMnMmjs5                       ;ug4aJ&yfhzcmg8  ",
"  6sMNMMvxt&Lg4jxvxxvjgw                       $6d6aJ$yggzhch4  ",
"  5smMnnvxw$Ps1jjxxjjjj0                       =5s6aP&yhhhhhf>  ",
"  6sxjnnxnw$Ja1gjjjjjjj6                       *6s5aD#yzhkhhh<  ",
"  9ujfjjgj0$fu4gjjjjjjj6                       =6u666$rfaaaiu<  ",
"  66jjjgggs149g6ggggggg6                       *66u556faadfht4  ",
"  66sjjjgjgw11s6uffjjsu6                       $;u664yafdadgy<  ",
"  46sjjsgggs616s6sfufut6                       #;s555ayaaauaq<  ",
"  64sjssfffst,16w0saw006                       *65;5yyaaaaayq<  ",
"  41ussssssss5=1w6uaaau1                      ,4t;;6uyyyaiuy9<  ",
"  44ussaaaausu==1w6saau1                      ,t5-;uyyyyyyyt6<  ",
"  14tuuauauuua6*;00jvMa,                     *96;-6utytyqttt6<  ",
"  64uuuuuuuuuuu;*1w0fuw1                     ,t,$5uutqqttttq9<  ",
"  14tttytuututu6+,6=,;;1                     ,9,@5ttt9qt9q9q9,  ",
"    wwwwwtttttt                                                 ",
"                                                                ",
"                                                                ",
"                                                                ",
"                                                                ",
"                                                                ",
"                                                                ",
"                                                                ",
"                                                                ",
"                                                                ",
"                                                                ",
"                                                                "
};
