/* XPM */
static char *result[] = {
/* columns rows colors chars-per-pixel */
"64 64 26 1 ",
"  c #9B9401",
". c #9E9801",
"X c #A39C01",
"o c #A89F00",
"O c #A6A000",
"+ c #ABA400",
"@ c #AFA801",
"# c #B3AC00",
"$ c #B7B001",
"% c #BBB400",
"& c #BFB800",
"* c #C3BC00",
"= c #CBC300",
"- c #D1C700",
"; c #D4CB01",
": c #D8CE00",
"> c #DCD300",
", c #E0D700",
"< c #E4DB00",
"1 c #E8DF00",
"2 c #ECE300",
"3 c #F0E600",
"4 c #F4EA00",
"5 c #F8ED00",
"6 c #FEF400",
"7 c None",
/* pixels */
"7777777777777777777777777777777777777777777777777777777777777777",
"7777777777777777777777777777777777777777777777777777777777777777",
"7777777777777777777777777777777777777777777777777777777777777777",
"7777777777777777777777777777777777777777777777777777777777777777",
"7777777777777777777777777777777777777777777777777777777777777777",
"7777777777777777777777777777777777777777777777777777777777777777",
"7777777777777777777777777777777777777777777777777777777777777777",
"7777777777777777777777777777777777777777777777777777777777777777",
"7777777777777777777777777777777777777777777777777777777777777777",
"7777777777777777777777777777777777777777777777777777777777777777",
"7777777777777777777777777777777777777777777777777777777777777777",
"7777777777777777777777777777777777777777777777777777777777777777",
"7777777777777777777777777777777777777777777777777777777777777777",
"77777777777777777777777777777;===**%7777777777777777777777777777",
"77777777777777777777777777>:;;-===**%%#7777777777777777777777777",
"77777777777777777777777<<>>>;;==***%%%$##77777777777777777777777",
"77777777777777777777772<<,>:;;;==**%%%%##++777777777777777777777",
"777777777777777777777322,,>>;;;===**%%###@+O77777777777777777777",
"7777777777777777777422<<,<>>>;;==****%#$+#++o7777777777777777777",
"7777777777777777777522221,>>;;;===**%%%$#@++OX777777777777777777",
"77777777777777777754332<,,>>>;;-=****%%##@++OXX77777777777777777",
"7777777777777777765333221,,>;;;===**%*%##@O+OXX 7777777777777777",
"7777777777777777665433277,,>>;;====*%%%$##@+OXX 7777777777777777",
"77777777777777776665427777,>>:;-==**&%%$#@@+OXX  777777777777777",
"77777777777777766663437777,>>;;;==***%%$##@+OoXX 777777777777777",
"77777777777777766665433777,>>>;;===**%%$##@++oXX  77777777777777",
"77777777777777766654432211<,>;;;-===*%%%###++XXX. 77777777777777",
"77777777777777666665432211,>>>;;===***%%$#@@+XXX  77777777777777",
"7777777777777766665543321,,,>>:;;=*=*%%$$$#++OXX. 77777777777777",
"777777777777776666654432211>>>;;===***%%##@+++XX. 77777777777777",
"77777777777777666666533211,,>>;;;===**&%%##++OXX.  7777777777777",
"77777777777777666666543211,,>>;;--=***&%$###+OXXX  7777777777777",
"7777777777777766666644422<2>>>>;7-==**%%$$#@++XXX  7777777777777",
"77777777777777666665443222<<>>:;777=***%$$##+++XX 77777777777777",
"7777777777777766666655432<<>>>>;7777**&%%$##++OOX.77777777777777",
"777777777777776666665433222<<>::77777**%$$##@+OX..77777777777777",
"7777777777777776666654432<1>>>>>777777*%%$##+++XX.77777777777777",
"7777777777777776666664432221<>>77777777%%$##@++oXX77777777777777",
"77777777777777766666554322<<<>>777777777%$##@+OOX777777777777777",
"777777777777777766666433222<<>>7777777777%###@+OX777777777777777",
"777777777777777766666544322<,>>77777777777$##+OO7777777777777777",
"777777777777777776666644221<1,>777777777777$#++o7777777777777777",
"777777777777777776666444222<,>>7777777777777#@+77777777777777777",
"77777777777777777766664422211>777777777777777@777777777777777777",
"777777777777777777766444332<1,7777777777777777777777777777777777",
"7777777777777777777766643322,,7777777777777777777777777777777777",
"77777777777777777777774432211,7777777777777777777777777777777777",
"77777777777777777777777432221,7777777777777777777777777777777777",
"77777777777777777777777772221,7777777777777777777777777777777777",
"77777777777777777777777777771<7777777777777777777777777777777777",
"7777777777777777777777777777777777777777777777777777777777777777",
"7777777777777777777777777777777777777777777777777777777777777777",
"7777777777777777777777777777777777777777777777777777777777777777",
"7777777777777777777777777777777777777777777777777777777777777777",
"7777777777777777777777777777777777777777777777777777777777777777",
"7777777777777777777777777777777777777777777777777777777777777777",
"7777777777777777777777777777777777777777777777777777777777777777",
"7777777777777777777777777777777777777777777777777777777777777777",
"7777777777777777777777777777777777777777777777777777777777777777",
"7777777777777777777777777777777777777777777777777777777777777777",
"7777777777777777777777777777777777777777777777777777777777777777",
"7777777777777777777777777777777777777777777777777777777777777777",
"7777777777777777777777777777777777777777777777777777777777777777",
"7777777777777777777777777777777777777777777777777777777777777777"
};
