/* XPM */
static char *result[] = {
/* columns rows colors chars-per-pixel */
"64 64 28 1 ",
"  c #9C9500",
". c #9E9800",
"X c #A39D01",
"o c #A6A001",
"O c #ABA400",
"+ c #AFA800",
"@ c #B3AC00",
"# c #B8AF00",
"$ c #B7B000",
"% c #BBB400",
"& c #BFB900",
"* c #C3BC00",
"= c #C8BF00",
"- c #CCC300",
"; c #CFC800",
": c #D4CB00",
"> c #D8CF00",
", c #D7D000",
"< c #DCD300",
"1 c #E0D700",
"2 c #E4DB00",
"3 c #E8DF00",
"4 c #ECE300",
"5 c #F0E700",
"6 c #F4EA00",
"7 c #F9EE00",
"8 c #FEF400",
"9 c None",
/* pixels */
"9999999999999999999999999999999999999999999999999999999999999999",
"9999999999999999999999999999999999999999999999999999999999999999",
"9999999999999999999999999999999999999999999999999999999999999999",
"9999999999999999999999999999999999999999999999999999999999999999",
"9999999999999999999999999999999999999999999999999999999999999999",
"9999999999999999999999999999999999999999999999999999999999999999",
"9999999999999999999999999999999999999999999999999999999999999999",
"9999999999999999999999999999999999999999999999999999999999999999",
"9999999999999999999999999999999999999999999999999999999999999999",
"9999999999999999999999999999999999999999999999999999999999999999",
"9999999999999999999999999999999999999999999999999999999999999999",
"9999999999999999999999999999999999999999999999999999999999999999",
"9999999999999999999999999999999999999999999999999999999999999999",
"9999999999999999999999999999888888889999999999999999999999999999",
"9999999999999999999999999888888888888888999999999999999999999999",
"9999999999999999999999988888888888888888899999999999999999999999",
"9999999999999999999998888888888888888888888999999999999999999999",
"9999999999999999999988888888888888888768667699999999999999999999",
"9999999999999999999888888878887877866677666669999999999999999999",
"9999999999999999998888887877866676666665665654999999999999999999",
"9999999999999999987878677767766655654555544444499999999999999999",
"9999999999999999967666666665565555544449944444249999999999999999",
"9999999999999999666665655545555444444499993342229999999999999999",
"9999999999999999655555544544443333433399992222224999999999999999",
"9999999999999994544444444442333323222299921111<1<999999999999999",
"99999999999999944444334322322232221221111<<11<<<<<99999999999999",
"9999999999999943442223222222222112<1<<11<<<<<<><<<99999999999999",
"9999999999999922222222222<21<111<<<<<<<<<>>><:::,,99999999999999",
"99999999999999222212<12<<<<<<<<<>>>>><>:>:>:::::;;99999999999999",
"99999999999999999999<<<<<<<<,,>,>>>>:::::::;;::-;;;9999999999999",
"99999999999999999999999999,,>>::::::;:::;;;;;------9999999999999",
"99999999999999999999999999999999;:;;;;;--------=---9999999999999",
"9999999999999999999999999999999-;---------=-===*=**9999999999999",
"9999999999999999999999999999999----=--==***=*******9999999999999",
"999999999999999999999999999999--====*=**********&&99999999999999",
"99999999999999999999999999999***=****&&**&&&&&%%&&99999999999999",
"9999999999999999999999999999*******&&*%%*%%*&$&$$#99999999999999",
"999999999999999999999999999***%%%%&*&%%%%$$$$#$#$$99999999999999",
"99999999999999999999999999*%%%%%$%$$$$%#$##$#$@$+999999999999999",
"9999999999999999999999999%%%%%%$$#$$$###$@@@@+@@+999999999999999",
"999999999999999999999999#%###$$$#@$@@@@@@@++++++9999999999999999",
"99999999999999999999999%#@$$@$@@$+@+@++O+O+OOOOo9999999999999999",
"9999999999999999999999@$@@@@@@@++++O+OOOOOXOoOo99999999999999999",
"999999999999999999999@@+@+++OOOOOOOOOXOOXOOXOX999999999999999999",
"99999999999999999999O@O++O+OOOOoOXOXOXXXXOXXX9999999999999999999",
"99999999999999999999OOOOoOoOoooXOXXXoXXXXXXX99999999999999999999",
"9999999999999999999999oooooXXoXXXXXXXX XX.X999999999999999999999",
"99999999999999999999999XXXXXXXX.XX   X   99999999999999999999999",
"99999999999999999999999999X.....  ..  .9999999999999999999999999",
"999999999999999999999999999999     99999999999999999999999999999",
"9999999999999999999999999999999999999999999999999999999999999999",
"9999999999999999999999999999999999999999999999999999999999999999",
"9999999999999999999999999999999999999999999999999999999999999999",
"9999999999999999999999999999999999999999999999999999999999999999",
"9999999999999999999999999999999999999999999999999999999999999999",
"9999999999999999999999999999999999999999999999999999999999999999",
"9999999999999999999999999999999999999999999999999999999999999999",
"9999999999999999999999999999999999999999999999999999999999999999",
"9999999999999999999999999999999999999999999999999999999999999999",
"9999999999999999999999999999999999999999999999999999999999999999",
"9999999999999999999999999999999999999999999999999999999999999999",
"9999999999999999999999999999999999999999999999999999999999999999",
"9999999999999999999999999999999999999999999999999999999999999999",
"9999999999999999999999999999999999999999999999999999999999999999"
};
