/* XPM */
static char *_c577b0ea38840d2b646bc3961a2f0ccOYGPR7dhlKr7u5Hi[] = {
/* columns rows colors chars-per-pixel */
"64 64 28 1 ",
"  c None",
". c #9C9501",
"X c #9F9900",
"o c #A39C01",
"O c #A6A001",
"+ c #ABA400",
"@ c #AFA900",
"# c #B3AC00",
"$ c #B8AF00",
"% c #B7B001",
"& c #BBB300",
"* c #BFB800",
"= c #C3BB00",
"- c #C8BF01",
"; c #C7C100",
": c #CBC300",
"> c #D0C700",
", c #D4CB00",
"< c #D8CF01",
"1 c #DCD300",
"2 c #E0D700",
"3 c #E4DB00",
"4 c #E8DF00",
"5 c #ECE300",
"6 c #F0E600",
"7 c #F4EA00",
"8 c #F8EE00",
"9 c #FEF400",
/* pixels */
"                                                                ",
"                                                                ",
"                                                                ",
"                                                                ",
"                                                                ",
"                                                                ",
"                                                                ",
"                                                                ",
"                                                                ",
"                                                                ",
"                                                                ",
"                                                                ",
"                                                                ",
"                            15                                  ",
"                         56551                                  ",
"                       7655535                                  ",
"                     987755151                                  ",
"                    9987755551                                  ",
"                   99887555311                                  ",
"                  999877555551               @                  ",
"                  9998775555151             #++                 ",
"                 99997775531511            %#++o                ",
"                999998775555111           %#@@++                ",
"                999988775551511          %%#@@OoO               ",
"               9999998775551111         &%%@@++oo               ",
"               9999988755553311        =&&$#@@++oX              ",
"               9999987765533311,      =&&%##@++ooX              ",
"              9999998766555111<<     ===%%%@++OooX              ",
"              9999988765511311<,    -=*&%%##@+OOXX              ",
"              99999987765553111,   --=*&%$#@+OOoo.              ",
"              9999998775551111<, >:-==*&&%#@@OooX..             ",
"              9999997765515131<,>>:-==**%##@++ooo..             ",
"              9999997765555111<,>>;:-=*%%$##++ooX..             ",
"              9999977765551111,,>:;;=*=%%#@++OooX.              ",
"              9999977755153111<>>::==*&%$##+++oXX.              ",
"              999997775551311,,,>:;-==*%$##@+ooo..              ",
"               99997765553131<,,>:--=*&%##@+++oX..              ",
"               9999777    111<,>>;-==*&%$#@+oooX..              ",
"               9999775    311<,>::-==&&%$#+++ooo.               ",
"                999777    11<<,>::-===&%##@++oo..               ",
"                9887755  3111<,>:--=*&$###@O+oo.                ",
"                 98775543311<<>>::-==&%$#@@+ooo.                ",
"                  8765544111<,>>:--==&&%#@+++oo                 ",
"                  8765443311<,>>:-===&$%#@++Oo                  ",
"                   665543111<<>>:-==*%%%@@+OO                   ",
"                     5434111<<>::-==*&%#@@+O                    ",
"                      44311<>,>::-=**&%##@+                     ",
"                       33111<>>:;-=*&%%#@                       ",
"                         111<>>:--==&&$                         ",
"                             >::-==                             ",
"                                                                ",
"                                                                ",
"                                                                ",
"                                                                ",
"                                                                ",
"                                                                ",
"                                                                ",
"                                                                ",
"                                                                ",
"                                                                ",
"                                                                ",
"                                                                ",
"                                                                ",
"                                                                "
};
