/* XPM */
static char *_8c3624728dd4ee5be4173e5f0e0e3e4s4yljnr05XmKlc7S[] = {
/* columns rows colors chars-per-pixel */
"32 32 43 1 ",
"  c None",
". c #6D6A3C",
"X c #736C3E",
"o c #817A40",
"O c #877E43",
"+ c #8A8243",
"@ c #8D8543",
"# c #8C8344",
"$ c #908744",
"% c #918845",
"& c #978D46",
"* c #9D9247",
"= c #A19747",
"- c #A09748",
"; c #A39848",
": c #A29849",
"> c #A69B4A",
", c #A99D4A",
"< c #B7AA4D",
"1 c #BEB04D",
"2 c #C1B44F",
"3 c #C0B050",
"4 c #C6B751",
"5 c #CBBB52",
"6 c #CCBD51",
"7 c #CEBF53",
"8 c #D2C353",
"9 c #D4C553",
"0 c #D8CA55",
"q c #E2D158",
"w c #E7D558",
"e c #E6D658",
"r c #E7D758",
"t c #E8D758",
"y c #E9D859",
"u c #EAD959",
"i c #F3E15A",
"p c #F5E35C",
"a c #F9E65C",
"s c #DFD275",
"d c #E8D965",
"f c #E4D469",
"g c #DBD083",
/* pixels */
"                                ",
"                                ",
"                                ",
"                                ",
"                                ",
"                                ",
"                                ",
"                                ",
"                                ",
"                                ",
"                                ",
"                                ",
"             o7u3               ",
"            Otfde7>             ",
"            4agsi,.             ",
"           =8ae<  # +           ",
"           3ea0&  % %           ",
"           X5aaau*              ",
"            -tpaaa;             ",
"             @19q$              ",
"               ;                ",
"                                ",
"                                ",
"                                ",
"                                ",
"                                ",
"                                ",
"                                ",
"                                ",
"                                ",
"                                ",
"                                "
};
