/* XPM */
static char *_15b083e72da453a95cdc30d7f827928Jd6dcBUCNHYW0AEs[] = {
/* columns rows colors chars-per-pixel */
"100 100 8 1 ",
"  c None",
". c #1F212B",
"X c #2D2D2E",
"o c #2D2E30",
"O c #3A3A32",
"+ c #534F37",
"@ c #F9E65C",
"# c #FEFDEF",
/* pixels */
"                                                                                                    ",
"                                                                                                    ",
"                                                                                                    ",
"                                                                                                    ",
"                                                                                                    ",
"                                                                                                    ",
"                                                                                                    ",
"                                                                                                    ",
"                                                                                                    ",
"                                                                                                    ",
"                                                                                                    ",
"                                                                                                    ",
"                                                                                                    ",
"                                    .....................                                           ",
"                                    .....................                                           ",
"                                    ..@@@@@@@@@@@@@@@@@..                                           ",
"                                    ..@@@@@@@@@@@@@@@@@..                                           ",
"                           ...........@@@@@@@@@@@@@@@@@........                                     ",
"                           ..........+@@@O.........X@@@+.......                                     ",
"                           ..@@@@@@@@@@@@@@@@@@@@@@.@@@@@@@@@..                                     ",
"                           ..@@@@@@@@@@@@@@@@@@@@@@.@@@@@@@@@..                                     ",
"                           ..@@@@@@@@@@@@@@@@@@@@@@.@@@@@@@@@..                                     ",
"                           ..@@@@@@@@@@@@@@@@@@@@@@X.....X@@@..                                     ",
"                    .........@@@@@@@@@@@@@@@@@@@@@@@@@@@@.@@@...........                            ",
"                    ........+@@@@@@@@@@@@@@@@@@@@@@@@@@@@.@@@+..........                            ",
"                    ..@@@@@@@@@@@@@@@@@@@@@@@@@@@@@@@@@@@.@@@@@@@@@@@@..                            ",
"                    ..@@@@@@@@@@@@@@@@@@@@@@@@@@@@@@@@@@@.@@@@@@@@@@@@..                            ",
"                    ..@@@@@@@@@@@@@@@@@@@@@@@@@@@@@@@@@@@.@@@@@@@@@@@@..                            ",
"                    ..@@@@@@@@@@@@@@@@@@@@@@@@@@@@@@@@@@@X........O@@@........                      ",
"                ......@@@@@@@@@@@@@@@@@@@@@@@@@@@@@@@@@@@@@@@@@@@@@@@@+.......                      ",
"                .....+@@@@@@@@@@@@@@o.......o@@@@@@@@@@@@@@@@@@@@@@@@@@@@@@@..                      ",
"                ..@@@@@@@@@@@@@@@@@@.#######.@@@@@@@@@@@@@@@@@@@@@@@@@@@@@@@..                      ",
"                ..@@@@@@@@@@@@@@@@@@.#######.@@@@@@@@@@@@@@@@@@@@@@@@@@@@@@@..                      ",
"                ..@@@@@@@@@@@@@@@@@@.#######.@@@@@@@@@@@@@@@@@@@@@@@@@@@@@@@..                      ",
"                ..@@@@@@@@@@@@@@@@@@.#######.@@@@@@@@@@@@@@@@@@@@@@+..........                      ",
"                ..@@@@O@@@@@@@@@@@@@.#######.@@@@@@@@@@@@@@@@@@@@@@...........                      ",
"            ......@@@@.@@@@@@@@@@@@@.#######.@@@@@@@@@@@@@@@@@@@@@@..                               ",
"            .....+@@@@.@@@@@@@@@@@@@.#######.@@@@@@@@@@@@@@@@@@@@@@..                               ",
"            ..@@@@@@@@.@@@@@@@@@@@@@o.......o@@@@@@@@@@@@@+..........                               ",
"            ..@@@@@@@@.@@@@@@@@@@@@@@@@@@@@@@@@@@@@@@@@@@@...........                               ",
"            ..@@@@@@@@.@@@@@@@@@@@@@@@@@@@@@@@@@@@@@@@@@@@..                                        ",
"            ..@@@@@@@@.@@@@@@@@@@@@@@@@@@@@@@@@@@@@@@@@@@@..                                        ",
"      ........@@@@X...X@@@@@@@@@@@@@@@@@@@@@@@@@@@@@@@@@@@..                                        ",
"      .......+@@@@.@@@@@@@@@@@@@@@@@@@@@@@@@@@@@@+..........                                        ",
"      ..@@@@@@@@@@.@@@@@@@@@@@@@@@@@@@@@@@@@@@@@@...........         ........         ........      ",
"      ..@@@@@@@@@@.@@@@@@@@@@@@@@@@@@@@@@@@@@@@@@..                  ........         ........      ",
"      ..@@@@@@@@@@.@@@@@@@@@@@@@@@@@@@@@@@@@@@@@@..                  ..@@@@..         ..@@@@..      ",
"      ..@@@@@@@@@@.@@@@@@@@@@@@@@@@@@@@+...........               .....@@@@.....   .....@@@@.....   ",
"      ..@@@@O@@O..X@@@@@@@@@@@@@@@@@@@@............               ....+@@@@+....   ....+@@@@+....   ",
"      ..@@@@.@@@@@@@@@@@@@@@@@@@@@@@@@@..                         ..@@@@@@@@@@..   ..@@@@@@@@@@..   ",
"      ..@@@@.@@@@@@@@@@@@@@@@@@@@@@@@@@..                         ..@@@@@@@@@@..   ..@@@@@@@@@@..   ",
"      ..@@@@.@@@@@@@@@@@@@@@@@@@@@@@@@@..                         ..@@@@@@@@@@..   ..@@@@@@@@@@..   ",
"      ..@@@@.@@@@@@@@@@@@@@@@@@@@@@@@@@..                         ..@@@@@@@@@@..   ..@@@@@@@@@@..   ",
"      ..@@@@.@@@@@@@@@@@@@@@@@@@@@@@@@@............               ....+@@@@+....   ....+@@@@+....   ",
"      ..@@@@X....X@@@@@@@@@@@@@@@@@@@@@+...........               .....@@@@.....   .....@@@@.....   ",
"      ..@@@@@@@@@.@@@@@@@@@@@@@@@@@@@@@@@@@@@@@@@..                  ..@@@@..         ..@@@@..      ",
"      ..@@@@@@@@@.@@@@@@@@@@@@@@@@@@@@@@@@@@@@@@@..                  ........         ........      ",
"      ..@@@@@@@@@.@@@@@@@@@@@@@@@@@@@@@@@@@@@@@@@............        ........         ........      ",
"      ..@@@@@@@@@.@@@@@@@@@@@@@@@@@@@@@@@@@@@@@@@+...........                                       ",
"      .......+@@@.@@@@@@@@@@@@@@@@@@@@@@@@@@@@@@@@@@@@@@@@@..                                       ",
"      ........@@@.@@@@@@@@@@@@@@@@@@@@@@@@@@@@@@@@@@@@@@@@@..                                       ",
"            ..@@@X....X@@@@@@@@@@@@@@@@@@@@@@@@@@@@@@@@@@@@..                                       ",
"            ..@@@@@@@@.@@@@@@@@@@@@@@@@@@@@@@@@@@@@@@@@@@@@..........                               ",
"            ..@@@@@@@@.@@@@@@@@@@@@@@@@@@@@@@@@@@@@@@@@@@@@+.........                               ",
"            ..@@@@@@@@.@@@@@@@@@@@@@@@@@@@@@@@@@@@@@@@@@@@@@@@@@@@@..                               ",
"            ..@@@@@@@@.@@@@@@@@@@@@@@@@@@@@@@@@@@@@@@@@@@@@@@@@@@@@..                               ",
"            .....+@@@@O@@@@@@@@@@@@@@@@@@@@@@@@@@@@@@@@@@@@@@@@@@@@...........                      ",
"            ......@@@@@@@@@@@@@@@@@@@@@@@@@@@@@@@@@@@@@@@@@@@@@@@@@+..........                      ",
"                ..@@@@@@@@@@@@@@@@@@@@@@@@@@@@@@@@@@@@@@@@@@@@@@@@@@@@@@@@@@..                      ",
"                ..@@@@@@@@@@@@@@@@@@@@@@@@@@@@@@@@@@@@@@@@@@@@@@@@@@@@@@@@@@..                      ",
"                ..@@@@@@@@@@@@@@@@@@@@@@@@@@@@@@@@@@@@@@@@@@@@@@@@@@@@@@@@@@..                      ",
"                ..@@@@@@@@@@@@@@@@@@@@@@@@@@@@@@@@@@@@@@@@@@@@@@@@@@@@+.......                      ",
"                ..@@@@@@@@@@@@@@@@@@@@@@@@@@@@@@@@@@@@@@@@@@@@@@@@@@@@........                      ",
"                .....+@@@@O.....X@@@@@@@@@@@@@@@@@@@@@@@@@@@@@@@@@@@@@..                            ",
"                ......@@@@@@@@@@.@@@@@@@@@@@@@@@@@@@@@@@@@@@@@@@@@@@@@..                            ",
"                    ..@@@@@@@@@@.@@@@@@@@@@@@@@@@@@@@@@@@@@@@@@@@@@@@@..                            ",
"                    ..@@@@@@@@@@.@@@@@@@@@@@@@@@@@@@@@@@@@@@@@@@@@@@@@..                            ",
"                    ........+@@@.@@@@@@@@@@@@@@@@@@@@@@@@@@@@@+.........                            ",
"                    .........@@@.@@@@@@@@@@@@@@@@@@@@@@@@@@@@@..........                            ",
"                           ..@@@X........X@@@@@@@@@@@@@@@@@@@@..                                    ",
"                           ..@@@@@@@@@@@@.@@@@@@@@@@@@@@@@@@@@..                                    ",
"                           ..@@@@@@@@@@@@.@@@@@@@@@@@@@@@@@@@@..                                    ",
"                           ..@@@@@@@@@@@@.@@@@@@@@@@@@@@@@@@@@..                                    ",
"                           ..........+@@@X.........O@@@+........                                    ",
"                           ...........@@@@@@@@@@@@@@@@@.........                                    ",
"                                    ..@@@@@@@@@@@@@@@@@..                                           ",
"                                    ..@@@@@@@@@@@@@@@@@..                                           ",
"                                    .....................                                           ",
"                                    .....................                                           ",
"                                                                                                    ",
"                                                                                                    ",
"                                                                                                    ",
"                                                                                                    ",
"                                                                                                    ",
"                                                                                                    ",
"                                                                                                    ",
"                                                                                                    ",
"                                                                                                    ",
"                                                                                                    ",
"                                                                                                    "
};
