/* XPM */
static char *d54394273e2047e39a04d19c23e6a6bfR8SlLJvhhgLlTzHH[] = {
/* columns rows colors chars-per-pixel */
"64 64 18 1 ",
"  c None",
". c #55BCFF",
"X c #56BCFF",
"o c #56BDFF",
"O c #58BDFF",
"+ c #67C2FF",
"@ c #68C0FF",
"# c #68C1FF",
"$ c #69C1FF",
"% c #68C2FF",
"& c #69C2FF",
"* c #68C3FF",
"= c #69C3FF",
"- c #6AC2FF",
"; c #6AC3FF",
": c #6BC3FF",
"> c #6CC3FF",
", c #69C4FF",
/* pixels */
"                                                                ",
"  &&+&&++&+&&++&+&&++&+&&++&+&&++&+&&**&+&&++&+&&+&+*&&++&+&&o  ",
" o                                                            > ",
" &                                                            & ",
" &                                                            & ",
" ,                                                            , ",
" +                                                            & ",
" &                                                            & ",
" +                                                            & ",
" &                                                            > ",
" &                                                            & ",
" +                                                            & ",
" ,                                                            & ",
" &                                                            & ",
" &                                                            > ",
" &                                                            & ",
" &                                                            & ",
" &                                                            & ",
" +                                                            & ",
" &                                                            & ",
" +                                                            & ",
" ,                                                            > ",
" &                                                            & ",
" +                                                            & ",
" +                                                            & ",
" ,                                                            & ",
" &                                                            & ",
" &                                                            & ",
" &                                                            & ",
" &                                                            & ",
" +                                                            & ",
" &                                                            & ",
" +                                                            > ",
" &                                                            & ",
" &                                                            & ",
" *                                                            & ",
" ,                                                            & ",
" +                                                            > ",
" &                                                            & ",
" &                                                            & ",
" &                                                            & ",
" +                                                            & ",
" +                                                            & ",
" &                                                            > ",
" +                                                            & ",
" &                                                            & ",
" &                                                            & ",
" +                                                            > ",
" *                                                            & ",
" &                                                            & ",
" &                                                            & ",
" &                                                            & ",
" ,                                                            > ",
" +                                                            & ",
" &                                                            & ",
" &                                                            & ",
" +                                                            & ",
" &                                                            & ",
" ,                                                            & ",
" &                                                            & ",
" &                                                            & ",
" ,                                                            o ",
"  o@&&&&&&&&&&&,&&&&&&&+&&&&&+&&&&&&+,&&&&+&&*&+&&&&&&,&&&&&&&  ",
"                                                                "
};
